<svg xmlns="http://www.w3.org/2000/svg" width="208" height="208" viewBox="0 0 208 208">
  <path id="iconmonstr-school-19" d="M190.667,190.667h8.667V208H8.667V190.667h8.667V121.333H190.667ZM130,147.333H78v52H95.333V156h17.333v43.333H130Zm-78,26H34.667v17.333H52Zm121.333,0H156v17.333h17.333ZM52,138.667H34.667V156H52Zm121.333,0H156V156h17.333Zm34.667-26H0L26,52H60.173L37.631,71.318,43.351,78,95.333,33.427V0h43.333L130,12.922,138.667,26H104l60.658,52,5.729-6.682L147.836,52H182ZM104,56.333A21.667,21.667,0,1,1,82.333,78,21.675,21.675,0,0,1,104,56.333ZM104,78h8.667v6.933H97.387v-15.6H104Z" fill-rule="evenodd"/>
</svg>
