<svg xmlns="http://www.w3.org/2000/svg" width="208" height="208" viewBox="0 0 208 208">
  <path id="iconmonstr-calendar-4" d="M173.333,173.333H138.667V138.667h34.667Zm-52-86.667H86.667v34.667h34.667Zm52,0H138.667v34.667h34.667Zm-104,52H34.667v34.667H69.333Zm52,0H86.667v34.667h34.667Zm-52-52H34.667v34.667H69.333ZM208,17.333V208H0V17.333H26V26a17.333,17.333,0,0,0,34.667,0V17.333h86.667V26A17.333,17.333,0,0,0,182,26V17.333Zm-17.333,52H17.333V190.667H190.667ZM173.333,8.667a8.667,8.667,0,1,0-17.333,0V26a8.667,8.667,0,1,0,17.333,0ZM52,26a8.667,8.667,0,1,1-17.333,0V8.667A8.667,8.667,0,1,1,52,8.667Z"/>
</svg>
