<svg xmlns="http://www.w3.org/2000/svg" width="190.667" height="208" viewBox="0 0 190.667 208">
  <path id="iconmonstr-school-3" d="M60.817,121.333C45.893,109.287,35.667,86.944,35.667,69.013c0-26.815,18.7-42.38,36.287-43A42.874,42.874,0,0,1,92.7,30.957,49.6,49.6,0,0,0,81.054,5.321L92.9,0c2.453,3.527,4.957,9.785,6.6,17.151,3.319-6.023,7.349-10.937,12.783-14.109C118.078-.347,127.689-.529,134.1.685c-1.621,5.7-5,13.113-12.922,17.983-4.871,2.99-12.714,4.524-20.661,3.926.364,2.453.633,4.975.754,7.514,5.911-3.155,12.48-4.195,19.439-4.091C138.3,26.633,157,42.2,157,69.013c0,17.931-10.227,40.274-25.151,52.321h59.817v17.333h-169a4.333,4.333,0,0,0,0,8.667h169v17.333H31.333a13,13,0,0,0,0,26H191.667V208H31.333A30.327,30.327,0,0,1,7.7,158.661a21.663,21.663,0,0,1,14.967-37.327ZM191.667,182h-156v-8.667h156ZM82.259,46.8C68.019,57.451,64.622,76.7,78.619,104c-6.543-3.484-20.54-17.741-20.384-34.19A22.938,22.938,0,0,1,82.259,46.8Z" transform="translate(-1)" fill-rule="evenodd"/>
</svg>
